<svg width="23" height="24" viewBox="0 0 23 24" fill="none" xmlns="http://www.w3.org/2000/svg">
<path d="M1.80664 6.96592C2.11457 6.32777 2.49248 5.73275 2.92407 5.17224C4.24422 3.4574 5.91521 2.21273 7.94277 1.45284C8.96482 1.0699 10.0219 0.844166 11.1124 0.779704C13.3125 0.649341 15.388 1.07494 17.313 2.17031C18.02 2.57266 18.6696 3.05361 19.2723 3.59951C19.3452 3.66541 19.3617 3.69872 19.2807 3.77899C18.2608 4.7917 17.2455 5.80919 16.2301 6.82621C16.1781 6.87845 16.1458 6.91296 16.0698 6.84394C14.7909 5.68075 13.2747 5.16912 11.5598 5.24221C9.91666 5.31243 8.50664 5.94794 7.31732 7.07399C6.50927 7.83915 5.92911 8.75528 5.56438 9.80729C5.55935 9.82191 5.55048 9.83508 5.54329 9.84898C5.48818 9.86192 5.45343 9.82454 5.41628 9.79602C4.67341 9.22521 3.93533 8.64793 3.19462 8.07424C2.76926 7.7445 2.34295 7.41596 1.91903 7.0843C1.87614 7.05075 1.82078 7.02727 1.80664 6.96568V6.96592Z" fill="#E94335"/>
<path d="M5.53729 14.1504C5.65663 14.4409 5.76279 14.7368 5.90657 15.017C6.7441 16.6496 8.00986 17.8025 9.74435 18.421C10.6679 18.7502 11.6219 18.8346 12.5963 18.7395C13.5323 18.6482 14.4175 18.3968 15.2397 17.9357C15.3751 17.8598 15.5062 17.7764 15.6392 17.6963C15.7187 17.698 15.7674 17.757 15.8227 17.8001C16.5742 18.3848 17.3267 18.9681 18.0796 19.5511C18.4544 19.8413 18.8278 20.1334 19.2026 20.4239C19.2363 20.45 19.2788 20.4711 19.2759 20.5248C18.7889 20.9899 18.2481 21.3839 17.6713 21.7287C16.4753 22.4433 15.1815 22.8811 13.8076 23.0949C13.0041 23.2199 12.1961 23.2655 11.3849 23.2329C9.75609 23.1675 8.20972 22.7711 6.75968 22.0249C4.60415 20.9154 2.96935 19.2786 1.84737 17.1296C1.83107 17.0984 1.81981 17.0644 1.80615 17.0318C1.85528 16.9281 1.95928 16.8825 2.04243 16.8181C3.14332 15.9647 4.23439 15.0987 5.34391 14.2563C5.4019 14.2123 5.45054 14.1442 5.53753 14.1504H5.53729Z" fill="#34A753"/>
<path d="M19.2756 20.5248C18.943 20.2639 18.6115 20.0017 18.278 19.7424C17.4213 19.0765 16.5636 18.4117 15.7062 17.7467C15.6841 17.7297 15.6614 17.7134 15.6391 17.6969C16.0328 17.4153 16.4035 17.1091 16.7208 16.7405C17.3055 16.0611 17.6868 15.2825 17.8759 14.4072C17.901 14.2902 17.833 14.3053 17.764 14.3053C15.9995 14.3053 14.2348 14.3053 12.4704 14.3053C12.3026 14.3053 12.1347 14.2996 11.9674 14.3075C11.8691 14.3123 11.8399 14.2854 11.8404 14.1836C11.8445 13.3173 11.8428 12.451 11.8428 11.5847C11.8428 11.0896 11.8466 10.5945 11.8399 10.0997C11.8385 9.98634 11.8639 9.95423 11.982 9.95447C14.2257 9.9583 16.4692 9.95734 18.7129 9.95734C19.9065 9.95734 21.1002 9.95878 22.294 9.95495C22.4019 9.95471 22.4417 9.98131 22.4601 10.0932C22.5763 10.7915 22.6391 11.4946 22.6382 12.2013C22.6343 14.5924 22.0927 16.8325 20.7371 18.8371C20.3175 19.4575 19.8342 20.024 19.2758 20.5248H19.2756Z" fill="#4284F3"/>
<path d="M5.53705 14.1505C5.12799 14.4625 4.71726 14.7723 4.31059 15.0872C3.4745 15.734 2.64057 16.3837 1.80591 17.0321C1.42729 16.3041 1.14476 15.5394 0.942504 14.7453C0.606294 13.4246 0.518827 12.087 0.671955 10.7328C0.817654 9.44451 1.18166 8.22164 1.75535 7.05988C1.77117 7.02777 1.78986 6.99734 1.80735 6.96619C2.55717 7.54611 3.30724 8.12603 4.05682 8.70643C4.52291 9.06732 4.98829 9.42965 5.45414 9.79078C5.48242 9.81259 5.51405 9.83008 5.544 9.84973C5.42083 10.2665 5.3106 10.6856 5.24997 11.1174C5.11194 12.099 5.21067 13.0582 5.50231 14.0017C5.5174 14.0506 5.5452 14.0968 5.53729 14.1512L5.53705 14.1505Z" fill="#FABB05"/>
</svg>
