<svg width="22" height="20" viewBox="0 0 22 20" fill="none" xmlns="http://www.w3.org/2000/svg">
<path fill-rule="evenodd" clip-rule="evenodd" d="M10.7509 16.2097C16.5765 16.2097 21.2991 12.7465 21.2991 8.47433C21.2991 4.2022 16.5765 0.738953 10.7509 0.738953C4.92525 0.738953 0.202637 4.2022 0.202637 8.47433C0.202637 11.0833 1.96386 13.3905 4.66197 14.7916C4.66909 14.7953 4.66535 14.8063 4.65751 14.8046C4.65398 14.8039 4.65048 14.806 4.64947 14.8094L3.38569 19.1563C3.25698 19.599 3.74508 19.9652 4.13411 19.7178L9.56979 16.2611C9.66032 16.2035 9.76693 16.1769 9.87401 16.1834C10.1632 16.2008 10.4556 16.2097 10.7509 16.2097Z" fill="#3E3E3E"/>
</svg>
