<svg width="63" height="39" viewBox="0 0 63 39" fill="none" xmlns="http://www.w3.org/2000/svg">
<g id="Group 2582">
<g id="Group 2581">
<path id="c" d="M7.92912 15.9793C3.50544 15.9793 0.679199 12.938 0.679199 8.14567C0.679199 3.35335 3.56688 0.312073 8.11344 0.312073C12.1685 0.312073 14.7797 2.76967 14.7797 6.64039H12.5064C12.4757 4.12135 10.7861 2.52391 8.14416 2.52391C5.10288 2.52391 3.1368 4.70503 3.1368 8.14567C3.1368 11.5863 5.04144 13.7674 7.99056 13.7674C10.7554 13.7674 12.5371 12.2007 12.5678 9.71239H14.8411C14.8411 13.5217 12.1378 15.9793 7.92912 15.9793Z" fill="white"/>
<path id="a" d="M38.7311 15.9793C35.2905 15.9793 33.1094 14.2282 33.1094 11.3713C33.1094 9.22087 34.6147 7.37767 38.6697 7.37767H44.8444V6.27175C44.8444 3.66055 43.3084 2.40103 40.2057 2.40103C37.4102 2.40103 35.8742 3.44551 35.8742 5.50375C35.8742 5.59591 35.8742 5.81095 35.9049 6.05671H33.6316C33.6009 5.84167 33.5702 5.41159 33.5702 5.13511C33.5702 2.12455 36.1507 0.312073 40.2671 0.312073C44.7215 0.312073 47.302 2.52391 47.302 6.48679V15.7335H44.8444C44.8751 15.027 44.9366 13.6138 44.9673 12.1393H44.9366C44.4143 14.474 42.5097 15.9793 38.7311 15.9793ZM39.2227 13.8903C42.6633 13.8903 44.8444 12.1393 44.8444 9.37447V9.15943H38.8847C36.3964 9.15943 35.4134 9.89672 35.4134 11.3713C35.4134 12.9073 36.8265 13.8903 39.2227 13.8903Z" fill="white"/>
<path id="o" d="M24.0941 15.9793C19.3939 15.9793 16.4141 12.938 16.4141 8.17639C16.4141 3.38407 19.3939 0.312073 24.0941 0.312073C28.7942 0.312073 31.7741 3.38407 31.7741 8.17639C31.7741 12.938 28.7942 15.9793 24.0941 15.9793ZM24.0941 13.7674C27.2889 13.7674 29.3165 11.5863 29.3165 8.17639C29.3165 4.73575 27.2889 2.52391 24.0941 2.52391C20.8992 2.52391 18.8717 4.73575 18.8717 8.17639C18.8717 11.5863 20.8992 13.7674 24.0941 13.7674Z" fill="white"/>
<path id="s" d="M55.5412 15.9793C50.4417 15.9793 48.8442 13.5831 48.8442 10.6647H51.1175C51.1175 12.6922 52.3463 13.8903 55.5105 13.8903C58.6439 13.8903 60.1492 12.938 60.1492 11.3098C60.1492 10.6954 59.9649 10.1118 59.1969 9.74311C58.4903 9.40519 56.8929 9.22087 55.019 9.03655C52.5306 8.82151 51.0254 8.51431 50.1038 7.83847C49.2743 7.22407 48.8442 6.11815 48.8442 5.01223C48.8442 2.15527 51.4554 0.312073 55.5105 0.312073C60.057 0.312073 61.9617 2.30887 61.9617 5.71879H59.6884C59.6577 3.44551 58.306 2.40103 55.6026 2.40103C52.9914 2.40103 51.3018 3.35335 51.3018 4.85863C51.3018 5.47303 51.394 6.21031 52.2849 6.57895C53.0222 6.88615 54.5274 7.07047 56.5242 7.28551C58.8897 7.53127 60.057 7.74631 61.1015 8.32999C62.1153 8.91367 62.6068 10.081 62.6068 11.2177C62.6068 14.1975 60.1492 15.9793 55.5412 15.9793Z" fill="white"/>
<path id="t" d="M29.2892 37.9365C25.6028 37.9365 24.0361 35.6017 24.0361 32.2533V24.7883H21.5171V22.6379H23.5446C24.0361 22.6379 24.2204 22.3921 24.2819 21.5934L24.4048 19.1973H26.4937V22.6379H31.9926V24.7883H26.4937V32.0997C26.4937 34.4037 27.231 35.7861 29.5043 35.7861C30.5488 35.7861 31.5318 35.6017 31.8697 35.4789V37.5678C31.4089 37.7521 30.5181 37.9365 29.2892 37.9365Z" fill="white"/>
<path id="e" d="M47.4551 29.5806V30.7173H35.5665C35.7201 33.9429 37.6862 35.9704 40.666 35.9704C43.2158 35.9704 44.9668 34.6802 45.1818 32.6834H47.4551C47.3015 35.9704 44.6289 38.0594 40.6353 38.0594C36.058 38.0594 33.1089 35.0488 33.1089 30.3486C33.1089 25.4949 36.0273 22.3922 40.5738 22.3922C44.9054 22.3922 47.4551 25.0648 47.4551 29.5806ZM45.1818 28.9355V28.7512C45.1818 26.0786 43.523 24.4811 40.6353 24.4811C37.9319 24.4811 36.1194 26.0478 35.6586 28.9355H45.1818Z" fill="white"/>
<path id="r" d="M49.4585 37.8135V22.6379H51.9161L51.8547 27.0308H51.8854C52.5919 24.3889 54.1587 22.3921 57.415 22.3921C60.8249 22.3921 62.6374 24.6654 62.6374 28.3211C62.6374 29.3655 62.5452 30.4715 62.4838 31.0244H60.2412C60.3027 30.5636 60.3641 29.7956 60.3641 28.8433C60.3641 26.0478 59.3196 24.6039 56.8313 24.6039C53.7286 24.6039 51.9161 27.3073 51.9161 31.0859V37.8135H49.4585Z" fill="white"/>
</g>
<g id="Group 246">
<path id="Ellipse 40" d="M8.16445 20.0194C12.9908 20.0194 16.9033 23.932 16.9033 28.7583C16.9033 33.5847 12.9908 37.4972 8.16444 37.4972" stroke="#3D66FF" stroke-width="1.92"/>
<path id="Vector 1" d="M8.12186 32.8967L8.66797 32.8967C11.4024 32.8967 13.6191 30.68 13.6191 27.9455V27.9455" stroke="#B6CBFF" stroke-width="1.92"/>
<path id="Ellipse 41" d="M6.79626 20.0195C3.76901 20.0195 1.31494 22.9021 1.31494 26.4581C1.31494 30.014 3.76901 32.8967 6.79626 32.8967" stroke="#6B8AFD" stroke-width="1.92"/>
</g>
</g>
</svg>
