<svg width="92" height="30" viewBox="0 0 92 30" fill="none" xmlns="http://www.w3.org/2000/svg">
<path d="M6.86796 20.169C3.82668 20.169 1.88364 18.0781 1.88364 14.7834C1.88364 11.4886 3.86892 9.39776 6.99468 9.39776C9.78252 9.39776 11.5777 11.0874 11.5777 13.7485H10.0148C9.99372 12.0166 8.83212 10.9184 7.0158 10.9184C4.92492 10.9184 3.57324 12.4179 3.57324 14.7834C3.57324 17.1488 4.88268 18.6483 6.9102 18.6483C8.811 18.6483 10.036 17.5712 10.0571 15.8605H11.62C11.62 18.4794 9.7614 20.169 6.86796 20.169Z" fill="white"/>
<path d="M28.0445 20.169C25.6791 20.169 24.1795 18.9652 24.1795 17.001C24.1795 15.5226 25.2144 14.2554 28.0023 14.2554H32.2474V13.4951C32.2474 11.6999 31.1914 10.834 29.0583 10.834C27.1363 10.834 26.0803 11.5521 26.0803 12.9671C26.0803 13.0305 26.0803 13.1783 26.1015 13.3473H24.5386C24.5175 13.1994 24.4963 12.9037 24.4963 12.7137C24.4963 10.6439 26.2704 9.39782 29.1005 9.39782C32.1629 9.39782 33.937 10.9185 33.937 13.6429V20.0001H32.2474C32.2685 19.5143 32.3107 18.5428 32.3319 17.529H32.3107C31.9517 19.1341 30.6423 20.169 28.0445 20.169ZM28.3824 18.7329C30.7479 18.7329 32.2474 17.529 32.2474 15.6282V15.4804H28.1501C26.4394 15.4804 25.7635 15.9873 25.7635 17.001C25.7635 18.057 26.7351 18.7329 28.3824 18.7329Z" fill="white"/>
<path d="M17.9815 20.169C14.7501 20.169 12.7015 18.0781 12.7015 14.8045C12.7015 11.5098 14.7501 9.39782 17.9815 9.39782C21.2129 9.39782 23.2615 11.5098 23.2615 14.8045C23.2615 18.0781 21.2129 20.169 17.9815 20.169ZM17.9815 18.6484C20.178 18.6484 21.5719 17.1489 21.5719 14.8045C21.5719 12.4391 20.178 10.9185 17.9815 10.9185C15.785 10.9185 14.3911 12.4391 14.3911 14.8045C14.3911 17.1489 15.785 18.6484 17.9815 18.6484Z" fill="white"/>
<path d="M39.6011 20.169C36.0952 20.169 34.9969 18.5217 34.9969 16.5153H36.5598C36.5598 17.9092 37.4046 18.7329 39.58 18.7329C41.7342 18.7329 42.7691 18.0781 42.7691 16.9588C42.7691 16.5364 42.6424 16.1351 42.1144 15.8817C41.6286 15.6493 40.5304 15.5226 39.242 15.3959C37.5313 15.2481 36.4964 15.0369 35.8628 14.5722C35.2926 14.1498 34.9969 13.3895 34.9969 12.6292C34.9969 10.665 36.7921 9.39782 39.58 9.39782C42.7057 9.39782 44.0152 10.7706 44.0152 13.1149H42.4523C42.4312 11.5521 41.5019 10.834 39.6433 10.834C37.8481 10.834 36.6865 11.4887 36.6865 12.5236C36.6865 12.946 36.7499 13.4529 37.3624 13.7063C37.8692 13.9175 38.9041 14.0442 40.2769 14.1921C41.9032 14.361 42.7057 14.5089 43.4238 14.9101C44.1208 15.3114 44.4587 16.114 44.4587 16.8954C44.4587 18.9441 42.7691 20.169 39.6011 20.169Z" fill="white"/>
<path d="M50.0461 20.0845C47.5117 20.0845 46.4346 18.4794 46.4346 16.1773V11.0452H44.7028V9.56678H46.0967C46.4346 9.56678 46.5613 9.39782 46.6036 8.8487L46.6881 7.20134H48.1242V9.56678H51.9047V11.0452H48.1242V16.0717C48.1242 17.6557 48.6311 18.6061 50.194 18.6061C50.9121 18.6061 51.5879 18.4794 51.8202 18.3949V19.8311C51.5034 19.9578 50.8909 20.0845 50.0461 20.0845Z" fill="white"/>
<path d="M62.5357 14.3399V15.1213H54.3623C54.4679 17.3389 55.8196 18.7329 57.8682 18.7329C59.6212 18.7329 60.825 17.8458 60.9729 16.473H62.5357C62.4301 18.7329 60.5927 20.169 57.8471 20.169C54.7002 20.169 52.6727 18.0993 52.6727 14.8679C52.6727 11.5309 54.6791 9.39782 57.8049 9.39782C60.7828 9.39782 62.5357 11.2353 62.5357 14.3399ZM60.9729 13.8964V13.7697C60.9729 11.9322 59.8324 10.834 57.8471 10.834C55.9885 10.834 54.7425 11.9111 54.4257 13.8964H60.9729Z" fill="white"/>
<path d="M63.913 20.0001V9.56678H65.6026L65.5603 12.5869H65.5815C66.0672 10.7706 67.1443 9.39782 69.3831 9.39782C71.7274 9.39782 72.9735 10.9607 72.9735 13.474C72.9735 14.1921 72.9101 14.9524 72.8679 15.3325H71.3261C71.3683 15.0157 71.4106 14.4877 71.4106 13.833C71.4106 11.9111 70.6925 10.9185 68.9818 10.9185C66.8487 10.9185 65.6026 12.777 65.6026 15.3748V20.0001H63.913Z" fill="white"/>
<path d="M83.785 7.71768C87.8069 7.71768 91.0674 10.9781 91.0674 15.0001C91.0674 19.022 87.8069 22.2825 83.785 22.2825" stroke="#3D66FF" stroke-width="1.6"/>
<path d="M82.6449 7.71773C80.1222 7.71773 78.0771 10.1199 78.0771 13.0832C78.0771 16.0465 80.1222 18.4487 82.6449 18.4487" stroke="#6B8AFD" stroke-width="1.6"/>
<path d="M83.7495 18.4487L84.2046 18.4487C86.4833 18.4487 88.3306 16.6014 88.3306 14.3227V14.3227" stroke="#B6CBFF" stroke-width="1.6"/>
</svg>
