<svg width="135" height="113" viewBox="0 0 135 113" fill="none" xmlns="http://www.w3.org/2000/svg">
<path d="M18.7195 84.3936C9.50353 84.3936 3.61553 78.0576 3.61553 68.0736C3.61553 58.0896 9.63153 51.7536 19.1035 51.7536C27.5515 51.7536 32.9915 56.8736 32.9915 64.9376H28.2555C28.1915 59.6896 24.6715 56.3616 19.1675 56.3616C12.8315 56.3616 8.73553 60.9056 8.73553 68.0736C8.73553 75.2416 12.7035 79.7856 18.8475 79.7856C24.6075 79.7856 28.3195 76.5216 28.3835 71.3376H33.1195C33.1195 79.2736 27.4875 84.3936 18.7195 84.3936Z" fill="black"/>
<path d="M54.1613 84.3936C43.5373 84.3936 40.2093 79.4016 40.2093 73.3216H44.9453C44.9453 77.5456 47.5053 80.0416 54.0973 80.0416C60.6253 80.0416 63.7613 78.0576 63.7613 74.6656C63.7613 73.3856 63.3773 72.1696 61.7773 71.4016C60.3053 70.6976 56.9773 70.3136 53.0733 69.9296C47.8893 69.4816 44.7533 68.8416 42.8333 67.4336C41.1053 66.1536 40.2093 63.8496 40.2093 61.5456C40.2093 55.5936 45.6493 51.7536 54.0973 51.7536C63.5693 51.7536 67.5373 55.9136 67.5373 63.0176H62.8013C62.7373 58.2816 59.9213 56.1056 54.2893 56.1056C48.8493 56.1056 45.3293 58.0896 45.3293 61.2256C45.3293 62.5056 45.5213 64.0416 47.3773 64.8096C48.9133 65.4496 52.0493 65.8336 56.2093 66.2816C61.1373 66.7936 63.5693 67.2416 65.7453 68.4576C67.8573 69.6736 68.8813 72.1056 68.8813 74.4736C68.8813 80.6816 63.7613 84.3936 54.1613 84.3936Z" fill="black"/>
<path d="M89.627 84.1376C81.947 84.1376 78.683 79.2736 78.683 72.2976V56.7456H73.435V52.2656H77.659C78.683 52.2656 79.067 51.7536 79.195 50.0896L79.451 45.0976H83.803V52.2656H95.259V56.7456H83.803V71.9776C83.803 76.7776 85.339 79.6576 90.075 79.6576C92.251 79.6576 94.299 79.2736 95.003 79.0176V83.3696C94.043 83.7536 92.187 84.1376 89.627 84.1376Z" fill="black"/>
<path d="M102.677 83.8816V52.2656H107.797L107.669 61.4176H107.733C109.205 55.9136 112.469 51.7536 119.253 51.7536C126.357 51.7536 130.133 56.4896 130.133 64.1056C130.133 66.2816 129.941 68.5856 129.813 69.7376H125.141C125.269 68.7776 125.397 67.1776 125.397 65.1936C125.397 59.3696 123.221 56.3616 118.037 56.3616C111.573 56.3616 107.797 61.9936 107.797 69.8656V83.8816H102.677Z" fill="black"/>
<path d="M65.838 2.67542C75.8928 2.67542 84.0439 10.8265 84.0439 20.8814C84.0439 30.9363 75.8928 39.0874 65.838 39.0874" stroke="#3D66FF" stroke-width="4"/>
<path d="M62.9878 2.67543C56.681 2.67543 51.5684 8.68097 51.5684 16.0892C51.5684 23.4974 56.681 29.5029 62.9878 29.5029" stroke="#6B8AFD" stroke-width="4"/>
<path d="M65.7495 29.5029L66.8872 29.5029C72.584 29.5029 77.2021 24.8848 77.2021 19.188V19.188" stroke="#B6CBFF" stroke-width="4"/>
</svg>
