<svg width="167" height="58" viewBox="0 0 167 58" fill="none" xmlns="http://www.w3.org/2000/svg">
<path d="M41.12 39.6078C35.4429 39.6078 31.8159 35.7048 31.8159 29.5547C31.8159 23.4045 35.5218 19.5016 41.3565 19.5016C46.5605 19.5016 49.9115 22.6555 49.9115 27.6229H46.9942C46.9547 24.3901 44.7864 22.3401 41.396 22.3401C37.493 22.3401 34.9698 25.1392 34.9698 29.5547C34.9698 33.9702 37.4141 36.7693 41.1988 36.7693C44.747 36.7693 47.0336 34.7586 47.073 31.5653H49.9904C49.9904 36.4539 46.5211 39.6078 41.12 39.6078Z" fill="white"/>
<path d="M80.6487 39.6078C76.2332 39.6078 73.4341 37.3606 73.4341 33.6942C73.4341 30.9345 75.3659 28.5691 80.5698 28.5691H88.4941V27.1498C88.4941 23.7988 86.5229 22.1824 82.541 22.1824C78.9535 22.1824 76.9823 23.5228 76.9823 26.1642C76.9823 26.2825 76.9823 26.5585 77.0217 26.8738H74.1043C74.0649 26.5979 74.0255 26.0459 74.0255 25.6911C74.0255 21.8276 77.3371 19.5016 82.6199 19.5016C88.3364 19.5016 91.648 22.3401 91.648 27.4258V39.2924H88.4941C88.5335 38.3857 88.6123 36.5721 88.6518 34.6798H88.6123C87.9421 37.676 85.4978 39.6078 80.6487 39.6078ZM81.2795 36.927C85.695 36.927 88.4941 34.6798 88.4941 31.1316V30.8557H80.8458C77.6525 30.8557 76.3909 31.8018 76.3909 33.6942C76.3909 35.6654 78.2044 36.927 81.2795 36.927Z" fill="white"/>
<path d="M61.8653 39.6078C55.8334 39.6078 52.0093 35.7048 52.0093 29.5941C52.0093 23.444 55.8334 19.5016 61.8653 19.5016C67.8972 19.5016 71.7213 23.444 71.7213 29.5941C71.7213 35.7048 67.8972 39.6078 61.8653 39.6078ZM61.8653 36.7693C65.9654 36.7693 68.5674 33.9702 68.5674 29.5941C68.5674 25.1786 65.9654 22.3401 61.8653 22.3401C57.7652 22.3401 55.1632 25.1786 55.1632 29.5941C55.1632 33.9702 57.7652 36.7693 61.8653 36.7693Z" fill="white"/>
<path d="M102.222 39.6078C95.6775 39.6078 93.6275 36.5327 93.6275 32.7874H96.5448C96.5448 35.3894 98.1218 36.927 102.182 36.927C106.204 36.927 108.135 35.7048 108.135 33.6153C108.135 32.8269 107.899 32.0778 106.913 31.6047C106.007 31.1711 103.957 30.9345 101.552 30.698C98.3583 30.422 96.4266 30.0278 95.2438 29.1604C94.1794 28.372 93.6275 26.9527 93.6275 25.5334C93.6275 21.867 96.9785 19.5016 102.182 19.5016C108.017 19.5016 110.461 22.0641 110.461 26.4402H107.544C107.505 23.5228 105.77 22.1824 102.301 22.1824C98.9497 22.1824 96.7814 23.4045 96.7814 25.3363C96.7814 26.1248 96.8996 27.071 98.0429 27.5441C98.9891 27.9383 100.921 28.1748 103.483 28.4508C106.519 28.7662 108.017 29.0422 109.358 29.7912C110.659 30.5403 111.289 32.0384 111.289 33.4971C111.289 37.3212 108.135 39.6078 102.222 39.6078Z" fill="white"/>
<path d="M121.72 39.4501C116.989 39.4501 114.979 36.4539 114.979 32.1567V22.5766H111.746V19.8169H114.348C114.979 19.8169 115.215 19.5016 115.294 18.4765L115.452 15.4015H118.133V19.8169H125.189V22.5766H118.133V31.9595C118.133 34.9163 119.079 36.6904 121.996 36.6904C123.337 36.6904 124.598 36.4539 125.032 36.2962V38.977C124.44 39.2136 123.297 39.4501 121.72 39.4501Z" fill="white"/>
<path d="M145.033 28.7268V30.1855H129.776C129.973 34.325 132.496 36.927 136.32 36.927C139.592 36.927 141.839 35.2712 142.115 32.7086H145.033C144.835 36.927 141.406 39.6078 136.28 39.6078C130.406 39.6078 126.622 35.7442 126.622 29.7124C126.622 23.4834 130.367 19.5016 136.202 19.5016C141.76 19.5016 145.033 22.9314 145.033 28.7268ZM142.115 27.8989V27.6623C142.115 24.2324 139.986 22.1824 136.28 22.1824C132.811 22.1824 130.485 24.193 129.894 27.8989H142.115Z" fill="white"/>
<path d="M147.603 39.2924V19.8169H150.757L150.679 25.4546H150.718C151.625 22.0641 153.635 19.5016 157.814 19.5016C162.19 19.5016 164.516 22.4189 164.516 27.1104C164.516 28.4508 164.398 29.8701 164.319 30.5797H161.441C161.52 29.9883 161.599 29.0027 161.599 27.7806C161.599 24.193 160.259 22.3401 157.065 22.3401C153.083 22.3401 150.757 25.8094 150.757 30.6585V39.2924H147.603Z" fill="white"/>
<path d="M11.9303 16.2207C18.9287 16.2207 24.6021 21.894 24.6021 28.8924C24.6021 35.8908 18.9287 41.5642 11.9303 41.5642" stroke="#3D66FF" stroke-width="2.464"/>
<path d="M9.94669 16.2206C5.55705 16.2206 1.99854 20.4006 1.99854 25.5569C1.99854 30.7132 5.55705 34.8932 9.94669 34.8932" stroke="#6B8AFD" stroke-width="2.464"/>
<path d="M11.8685 34.8932L12.6604 34.8932C16.6255 34.8932 19.8398 31.6788 19.8398 27.7137V27.7137" stroke="#B6CBFF" stroke-width="2.464"/>
</svg>
