<svg width="224" height="120" viewBox="0 0 224 120" fill="none" xmlns="http://www.w3.org/2000/svg">
<path d="M19.0115 90.6346C9.79552 90.6346 3.90752 84.2986 3.90752 74.3146C3.90752 64.3306 9.92352 57.9946 19.3955 57.9946C27.8435 57.9946 33.2835 63.1146 33.2835 71.1786H28.5475C28.4835 65.9306 24.9635 62.6026 19.4595 62.6026C13.1235 62.6026 9.02752 67.1466 9.02752 74.3146C9.02752 81.4826 12.9955 86.0266 19.1395 86.0266C24.8995 86.0266 28.6115 82.7626 28.6755 77.5786H33.4115C33.4115 85.5146 27.7795 90.6346 19.0115 90.6346Z" fill="black"/>
<path d="M83.182 90.6346C76.014 90.6346 71.47 86.9866 71.47 81.0346C71.47 76.5546 74.606 72.7146 83.054 72.7146H95.918V70.4106C95.918 64.9706 92.718 62.3466 86.254 62.3466C80.43 62.3466 77.23 64.5226 77.23 68.8106C77.23 69.0026 77.23 69.4506 77.294 69.9626H72.558C72.494 69.5146 72.43 68.6186 72.43 68.0426C72.43 61.7706 77.806 57.9946 86.382 57.9946C95.662 57.9946 101.038 62.6026 101.038 70.8586V90.1226H95.918C95.982 88.6506 96.11 85.7066 96.174 82.6346H96.11C95.022 87.4986 91.054 90.6346 83.182 90.6346ZM84.206 86.2826C91.374 86.2826 95.918 82.6346 95.918 76.8746V76.4266H83.502C78.318 76.4266 76.27 77.9626 76.27 81.0346C76.27 84.2346 79.214 86.2826 84.206 86.2826Z" fill="black"/>
<path d="M52.6888 90.6346C42.8968 90.6346 36.6888 84.2986 36.6888 74.3786C36.6888 64.3946 42.8968 57.9946 52.6888 57.9946C62.4808 57.9946 68.6888 64.3946 68.6888 74.3786C68.6888 84.2986 62.4808 90.6346 52.6888 90.6346ZM52.6888 86.0266C59.3448 86.0266 63.5688 81.4826 63.5688 74.3786C63.5688 67.2106 59.3448 62.6026 52.6888 62.6026C46.0328 62.6026 41.8088 67.2106 41.8088 74.3786C41.8088 81.4826 46.0328 86.0266 52.6888 86.0266Z" fill="black"/>
<path d="M118.203 90.6346C107.579 90.6346 104.251 85.6426 104.251 79.5626H108.987C108.987 83.7866 111.547 86.2826 118.139 86.2826C124.667 86.2826 127.803 84.2986 127.803 80.9066C127.803 79.6266 127.419 78.4106 125.819 77.6426C124.347 76.9386 121.019 76.5546 117.115 76.1706C111.931 75.7226 108.795 75.0826 106.875 73.6746C105.147 72.3946 104.251 70.0906 104.251 67.7866C104.251 61.8346 109.691 57.9946 118.139 57.9946C127.611 57.9946 131.579 62.1546 131.579 69.2586H126.843C126.779 64.5226 123.963 62.3466 118.331 62.3466C112.891 62.3466 109.371 64.3306 109.371 67.4666C109.371 68.7466 109.563 70.2826 111.419 71.0506C112.955 71.6906 116.091 72.0746 120.251 72.5226C125.179 73.0346 127.611 73.4826 129.787 74.6986C131.899 75.9146 132.923 78.3466 132.923 80.7146C132.923 86.9226 127.803 90.6346 118.203 90.6346Z" fill="black"/>
<path d="M149.856 90.3786C142.176 90.3786 138.912 85.5146 138.912 78.5386V62.9866H133.664V58.5066H137.888C138.912 58.5066 139.296 57.9946 139.424 56.3306L139.68 51.3386H144.032V58.5066H155.488V62.9866H144.032V78.2186C144.032 83.0186 145.568 85.8986 150.304 85.8986C152.48 85.8986 154.528 85.5146 155.232 85.2586V89.6106C154.272 89.9946 152.416 90.3786 149.856 90.3786Z" fill="black"/>
<path d="M187.701 72.9706V75.3386H162.933C163.253 82.0586 167.349 86.2826 173.557 86.2826C178.869 86.2826 182.517 83.5946 182.965 79.4346H187.701C187.381 86.2826 181.813 90.6346 173.493 90.6346C163.957 90.6346 157.813 84.3626 157.813 74.5706C157.813 64.4586 163.893 57.9946 173.365 57.9946C182.389 57.9946 187.701 63.5626 187.701 72.9706ZM182.965 71.6266V71.2426C182.965 65.6746 179.509 62.3466 173.493 62.3466C167.861 62.3466 164.085 65.6106 163.125 71.6266H182.965Z" fill="black"/>
<path d="M191.875 90.1226V58.5066H196.995L196.867 67.6586H196.931C198.403 62.1546 201.667 57.9946 208.451 57.9946C215.555 57.9946 219.331 62.7306 219.331 70.3466C219.331 72.5226 219.139 74.8266 219.011 75.9786H214.339C214.467 75.0186 214.595 73.4186 214.595 71.4346C214.595 65.6106 212.419 62.6026 207.235 62.6026C200.771 62.6026 196.995 68.2346 196.995 76.1066V90.1226H191.875Z" fill="black"/>
<path d="M103.047 2.30029C114.408 2.30029 123.618 11.5103 123.618 22.8713C123.618 34.2324 114.408 43.4424 103.047 43.4424" stroke="#3D66FF" stroke-width="4"/>
<path d="M99.8262 2.30026C92.7001 2.30026 86.9233 9.08595 86.9233 17.4565C86.9233 25.8271 92.7001 32.6128 99.8262 32.6128" stroke="#6B8AFD" stroke-width="4"/>
<path d="M102.947 32.6128L104.232 32.6128C110.669 32.6128 115.887 27.3947 115.887 20.9579V20.9579" stroke="#B6CBFF" stroke-width="4"/>
</svg>
