<svg width="137" height="139" viewBox="0 0 137 139" fill="none" xmlns="http://www.w3.org/2000/svg">
<path d="M18.6209 63.6346C9.40489 63.6346 3.51689 57.2986 3.51689 47.3146C3.51689 37.3306 9.5329 30.9946 19.0049 30.9946C27.4529 30.9946 32.8929 36.1146 32.8929 44.1786H28.1569C28.0929 38.9306 24.5729 35.6026 19.0689 35.6026C12.7329 35.6026 8.6369 40.1466 8.6369 47.3146C8.6369 54.4826 12.6049 59.0266 18.7489 59.0266C24.5089 59.0266 28.2209 55.7626 28.2849 50.5786H33.0209C33.0209 58.5146 27.3889 63.6346 18.6209 63.6346Z" fill="black"/>
<path d="M82.7914 63.6346C75.6234 63.6346 71.0794 59.9866 71.0794 54.0346C71.0794 49.5546 74.2154 45.7146 82.6634 45.7146H95.5274V43.4106C95.5274 37.9706 92.3274 35.3466 85.8634 35.3466C80.0394 35.3466 76.8394 37.5226 76.8394 41.8106C76.8394 42.0026 76.8394 42.4506 76.9034 42.9626H72.1674C72.1034 42.5146 72.0394 41.6186 72.0394 41.0426C72.0394 34.7706 77.4154 30.9946 85.9914 30.9946C95.2714 30.9946 100.647 35.6026 100.647 43.8586V63.1226H95.5274C95.5914 61.6506 95.7194 58.7066 95.7834 55.6346H95.7194C94.6314 60.4986 90.6634 63.6346 82.7914 63.6346ZM83.8154 59.2826C90.9834 59.2826 95.5274 55.6346 95.5274 49.8746V49.4266H83.1114C77.9274 49.4266 75.8794 50.9626 75.8794 54.0346C75.8794 57.2346 78.8234 59.2826 83.8154 59.2826Z" fill="black"/>
<path d="M52.2981 63.6346C42.5061 63.6346 36.2981 57.2986 36.2981 47.3786C36.2981 37.3946 42.5061 30.9946 52.2981 30.9946C62.0901 30.9946 68.2981 37.3946 68.2981 47.3786C68.2981 57.2986 62.0901 63.6346 52.2981 63.6346ZM52.2981 59.0266C58.9541 59.0266 63.1781 54.4826 63.1781 47.3786C63.1781 40.2106 58.9541 35.6026 52.2981 35.6026C45.6421 35.6026 41.4181 40.2106 41.4181 47.3786C41.4181 54.4826 45.6421 59.0266 52.2981 59.0266Z" fill="black"/>
<path d="M117.813 63.6346C107.189 63.6346 103.861 58.6426 103.861 52.5626H108.597C108.597 56.7866 111.157 59.2826 117.749 59.2826C124.277 59.2826 127.413 57.2986 127.413 53.9066C127.413 52.6266 127.029 51.4106 125.429 50.6426C123.957 49.9386 120.629 49.5546 116.725 49.1706C111.541 48.7226 108.405 48.0826 106.485 46.6746C104.757 45.3946 103.861 43.0906 103.861 40.7866C103.861 34.8346 109.301 30.9946 117.749 30.9946C127.221 30.9946 131.189 35.1546 131.189 42.2586H126.453C126.389 37.5226 123.573 35.3466 117.941 35.3466C112.501 35.3466 108.981 37.3306 108.981 40.4666C108.981 41.7466 109.173 43.2826 111.029 44.0506C112.565 44.6906 115.701 45.0746 119.861 45.5226C124.789 46.0346 127.221 46.4826 129.397 47.6986C131.509 48.9146 132.533 51.3466 132.533 53.7146C132.533 59.9226 127.413 63.6346 117.813 63.6346Z" fill="black"/>
<path d="M63.1221 109.379C55.4421 109.379 52.1781 104.515 52.1781 97.5386V81.9866H46.9301V77.5066H51.1541C52.1781 77.5066 52.5621 76.9946 52.6901 75.3306L52.9461 70.3386H57.2981V77.5066H68.7541V81.9866H57.2981V97.2186C57.2981 102.019 58.8341 104.899 63.5701 104.899C65.7461 104.899 67.7941 104.515 68.4981 104.259V108.611C67.5381 108.995 65.6821 109.379 63.1221 109.379Z" fill="black"/>
<path d="M100.967 91.9706V94.3386H76.1994C76.5194 101.059 80.6154 105.283 86.8234 105.283C92.1354 105.283 95.7834 102.595 96.2314 98.4346H100.967C100.647 105.283 95.0794 109.635 86.7594 109.635C77.2234 109.635 71.0794 103.363 71.0794 93.5706C71.0794 83.4586 77.1594 76.9946 86.6314 76.9946C95.6554 76.9946 100.967 82.5626 100.967 91.9706ZM96.2314 90.6266V90.2426C96.2314 84.6746 92.7754 81.3466 86.7594 81.3466C81.1274 81.3466 77.3514 84.6106 76.3914 90.6266H96.2314Z" fill="black"/>
<path d="M105.141 109.123V77.5066H110.261L110.133 86.6586H110.197C111.669 81.1546 114.933 76.9946 121.717 76.9946C128.821 76.9946 132.597 81.7306 132.597 89.3466C132.597 91.5226 132.405 93.8266 132.277 94.9786H127.605C127.733 94.0186 127.861 92.4186 127.861 90.4346C127.861 84.6106 125.685 81.6026 120.501 81.6026C114.037 81.6026 110.261 87.2346 110.261 95.1066V109.123H105.141Z" fill="black"/>
<path d="M19.1109 71.5514C29.1658 71.5514 37.3169 79.7025 37.3169 89.7574C37.3169 99.8123 29.1658 107.963 19.1109 107.963" stroke="#3D66FF" stroke-width="4"/>
<path d="M16.2607 71.5514C9.95395 71.5514 4.84131 77.5569 4.84131 84.9652C4.84131 92.3734 9.95395 98.3789 16.2607 98.3789" stroke="#6B8AFD" stroke-width="4"/>
<path d="M19.0224 98.3789L20.1602 98.3789C25.8569 98.3789 30.4751 93.7608 30.4751 88.064V88.064" stroke="#B6CBFF" stroke-width="4"/>
</svg>
